<svg version="1.1" id="Layer_1" xmlns="http://www.w3.org/2000/svg" xmlns:xlink="http://www.w3.org/1999/xlink" x="0px" y="0px"
	 width="50%" viewBox="0 0 1000 1200" enable-background="new 0 0 2100 1500" xml:space="preserve">
<path fill="none" opacity="1.000000" stroke="#000000" stroke-linecap="round" stroke-linejoin="round" stroke-width="10.000000"
	d="
M876.500000,1018.000000
	C868.870361,1021.740845 859.019897,1020.301697 852.444214,1015.070129 
	C848.432983,1011.878845 844.126404,1009.514648 838.432373,1012.364868 
	C834.217773,1014.474426 829.463684,1012.959534 825.001343,1011.993774 
	C792.940308,1005.054749 763.818665,991.254272 735.354858,975.258240 
	C717.206543,965.059265 699.476135,953.660095 679.478210,947.066162 
	C669.222534,943.684448 660.557007,938.068970 652.413513,931.101074 
	C645.683350,925.342590 638.568970,919.871887 630.479858,916.042542 
	C621.311340,911.702209 611.323792,910.073608 601.489868,908.049255 
	C597.923584,907.315125 595.968506,909.244263 596.041565,913.499268 
	C596.316956,929.524719 595.457520,945.506226 598.280579,961.538635 
	C601.907166,982.134644 604.619873,1002.925659 604.107239,1024.002563 
	C603.893921,1032.775269 603.029480,1041.421265 601.448669,1049.990479 
	C598.475159,1066.109985 597.227844,1082.503906 593.545715,1098.510498 
	C592.571350,1102.746216 591.439392,1106.894409 590.059509,1111.019897 
	C587.302917,1119.260986 585.821472,1127.734009 585.957886,1136.500610 
	C586.131714,1147.664551 585.878296,1158.835083 586.036926,1169.999512 
	C586.174683,1179.689941 582.148621,1186.460205 573.003296,1190.008545 
	C572.311462,1190.276978 571.650574,1190.638184 571.002319,1191.004150 
	C557.932312,1198.383423 551.414062,1196.188965 545.041016,1181.981567 
	C539.779968,1170.253540 535.595337,1158.130249 532.996033,1145.500854 
	C530.290955,1132.357422 525.207092,1119.973267 519.305542,1108.096680 
	C513.695129,1096.805908 509.215637,1085.125732 504.480988,1073.507690 
	C498.895386,1059.801758 493.034912,1046.248413 484.546295,1033.968018 
	C477.515320,1023.796265 474.937958,1011.986572 472.984833,1000.002502 
	C469.493927,978.582886 471.567963,957.003052 471.002777,935.499939 
	C470.980865,934.667175 471.253815,933.729614 470.962036,933.015503 
	C466.430481,921.925293 472.115509,911.339111 472.596985,900.504333 
	C472.891541,893.875610 473.227173,887.067566 476.523163,881.012634 
	C481.912689,871.111511 485.520264,860.469604 489.439362,849.977356 
	C495.452423,833.879089 501.474243,817.794067 503.696991,800.525330 
	C504.318390,795.697693 504.719177,790.817566 505.500000,786.000000 
"/>
<path fill="none" opacity="1.000000" stroke="#000000" stroke-linecap="round" stroke-linejoin="round" stroke-width="10.000000"
	d="
M543.000000,578.500000 
	C540.333313,576.254883 538.978577,573.335815 537.909729,570.029175 
	C536.467285,565.566772 534.508423,561.265442 532.643677,556.938049 
	C526.441650,542.545593 521.190369,527.812561 517.311768,512.547852 
	C515.316467,504.695282 512.383850,496.985352 509.064819,489.471375 
	C502.460449,474.519684 495.470703,459.779816 487.535919,445.480072 
	C483.146301,437.569275 476.656097,431.212616 471.944275,423.534180 
	C466.351349,414.420013 460.527435,405.474152 455.350525,396.082397 
	C450.905304,388.018066 445.291901,380.578522 439.972565,373.019287 
	C430.429169,359.457336 423.078125,344.689423 415.277008,330.119385 
	C410.473938,321.148682 402.724976,314.108368 394.030792,307.944244 
	C388.812775,313.576691 388.055603,320.558929 385.980743,326.993805 
	C381.716461,340.218689 380.641113,353.954041 382.218262,367.474548 
	C385.249329,393.458740 383.093140,419.964966 390.403198,445.527679 
	C393.166412,455.190430 394.716217,465.194336 397.030884,474.992706 
	C399.675629,486.188354 400.456726,497.593933 401.610718,508.988800 
	C402.770935,520.445007 399.399200,531.328308 398.569489,542.505188 
	C397.630859,555.149475 396.025208,567.835693 398.551331,580.489746 
	C398.636963,580.918640 399.020264,581.886292 400.000000,581.500000 
"/>
<path fill="none" opacity="1.000000" stroke="#000000" stroke-linecap="round" stroke-linejoin="round" stroke-width="10.000000"
	d="
M682.500000,654.500000 
	C682.105469,644.792786 686.301392,636.294495 689.456970,627.484558 
	C694.619019,613.072754 699.603271,598.664429 702.738037,583.549377 
	C705.772888,568.916016 711.658997,555.006226 716.912048,540.967102 
	C725.464355,518.110229 731.698792,494.407959 741.547546,472.020935 
	C748.263306,456.755432 752.858154,440.926178 755.468750,424.495026 
	C755.860229,422.030762 755.974854,419.500153 755.977295,416.999969 
	C755.995605,398.661072 756.273071,380.318359 755.026489,361.998199 
	C754.665161,356.687653 748.813477,353.585327 744.039429,356.563202 
	C741.971191,357.853271 740.157288,359.678009 738.527893,361.524628 
	C725.478027,376.313934 712.365662,391.051636 699.540100,406.034302 
	C688.090393,419.409576 675.887939,432.017883 663.030151,444.032288 
	C656.160278,450.451569 647.392761,453.895477 639.911926,459.379883 
	C634.507812,463.341858 629.143799,467.007690 624.906494,472.426910 
	C615.411194,484.570770 603.334595,494.198486 591.896362,504.383575 
	C587.052368,508.696930 582.884460,513.357788 578.921082,518.438416 
	C569.453064,530.575317 560.179932,542.762634 554.995361,557.498352 
	C553.525635,561.675720 551.923340,565.807861 550.529602,570.009827 
	C549.729980,572.420288 548.527832,574.525146 546.483948,575.977356 
	C540.878174,579.960327 540.245422,586.009094 540.074097,592.002136 
	C539.797974,601.660889 539.826782,611.337219 540.044678,620.998962 
	C540.305176,632.546448 538.311401,643.760010 536.096252,655.018921 
	C534.612122,662.562683 529.740295,668.620972 527.903259,675.975830 
	C527.154480,678.973694 525.916565,681.833313 526.000000,685.000000 
"/>
<path fill="none" opacity="1.000000" stroke="#000000" stroke-linecap="round" stroke-linejoin="round" stroke-width="10.000000"
	d="
M717.000000,802.500000 
	C718.477112,801.062561 719.835144,799.569214 721.991211,798.968384 
	C733.582153,795.738403 744.198547,790.499878 754.018250,783.525696 
	C766.147278,774.911499 780.260010,770.529724 794.036987,765.603455 
	C804.881714,761.725830 813.994324,755.115601 823.529419,749.046265 
	C841.626709,737.526733 858.740845,724.465210 877.545837,714.083008 
	C887.453125,708.613159 897.844604,704.022766 907.993835,698.987549 
	C911.532410,697.232056 915.103333,695.503479 918.473572,693.456482 
	C922.564880,690.971436 927.341309,679.232544 925.926819,674.521973 
	C923.648865,666.936401 917.776672,662.983032 910.486816,661.049744 
	C905.934326,659.842346 901.199768,659.860718 896.500061,660.001221 
	C875.588440,660.626282 854.813965,658.683105 833.979431,657.313049 
	C823.270630,656.608948 811.923218,654.383606 801.465942,659.935913 
	C800.555847,660.419128 799.165588,660.033203 798.000183,659.994751 
	C788.166565,659.670654 778.333618,659.323120 768.499573,659.013855 
	C767.369385,658.978333 766.409485,658.995422 765.465637,658.033752 
	C761.899719,654.400391 757.363098,653.888733 752.499390,653.948059 
	C739.834534,654.102417 727.166626,654.026672 714.500000,653.990051 
	C706.768616,653.967712 699.069641,654.179871 691.495911,655.982910 
	C689.867554,656.370483 687.567749,656.703613 686.578979,656.304382 
	C676.901550,652.396851 668.579956,657.462158 660.028503,660.092590 
	C645.731262,664.490417 633.251160,672.832703 620.004395,679.508789 
	C600.880188,689.146912 580.668396,696.016113 560.496277,702.989136 
	C557.856934,703.901489 555.166687,704.666687 552.500000,705.500061 
"/>
<path fill="none" opacity="1.000000" stroke="#000000" stroke-linecap="round" stroke-linejoin="round" stroke-width="10.000000"
	d="
M43.000000,794.000000 
	C44.832207,796.471130 47.102097,798.492615 50.010654,799.468201 
	C64.149567,804.210632 77.303436,811.349731 91.470078,816.089417 
	C115.911446,824.266541 140.098038,833.204529 164.532333,841.403625 
	C174.936478,844.894836 184.306473,850.215332 192.887207,856.650391 
	C203.162842,864.356506 214.700073,867.445679 226.999237,869.005981 
	C245.384384,871.338257 263.679962,869.427917 282.002686,868.035217 
	C297.489288,866.858093 312.841278,864.485596 328.504211,864.751282 
	C340.022064,864.946655 340.599548,870.334839 338.314148,878.447632 
	C332.722076,898.298523 326.244965,917.776184 316.219238,936.119812 
	C304.325928,957.880554 292.442169,979.706421 282.420746,1002.465088 
	C278.481506,1011.411133 272.292938,1019.029846 265.445618,1025.946167 
	C259.383514,1032.069458 254.642914,1039.016846 250.462677,1046.479126 
	C246.306549,1053.898315 246.594788,1061.968140 246.568817,1070.000244 
	C246.564224,1071.417603 247.197540,1073.197998 249.005127,1073.465332 
	C255.632370,1074.445190 261.598022,1077.758179 268.490448,1078.162720 
	C277.258972,1078.677490 284.271576,1075.156616 290.973907,1070.462769 
	C298.951141,1064.876099 306.276062,1058.413696 313.868622,1052.335938 
	C321.227112,1046.445435 328.351074,1040.564575 336.945312,1036.387451 
	C349.487000,1030.291748 360.476776,1021.516479 372.524597,1014.542480 
	C385.859344,1006.823608 398.793457,998.640137 410.589569,988.605286 
	C417.982788,982.315918 422.788940,973.815308 430.024933,967.528687 
	C441.699921,957.385620 449.117401,943.710449 459.433624,932.439270 
	C461.952820,929.686890 464.285767,927.014709 468.000000,926.000000 
"/>
<path fill="none" opacity="1.000000" stroke="#000000" stroke-linecap="round" stroke-linejoin="round" stroke-width="10.000000"
	d="
M522.000000,792.000000 
	C526.660950,795.293091 529.549438,799.440674 529.087097,805.506653 
	C528.988892,806.794373 529.843872,808.252686 530.523682,809.486938 
	C539.311951,825.442566 544.724670,842.710144 549.923340,860.023010 
	C552.719543,869.334961 557.066284,877.978760 560.631592,886.947693 
	C565.213074,898.472717 567.844604,910.426270 569.904236,922.516296 
	C571.633911,932.669678 573.663391,942.770203 575.172363,952.974487 
	C576.453186,961.635925 576.712891,970.357910 577.905273,979.013062 
	C579.459290,990.292969 580.283508,1001.672119 581.515320,1012.998352 
	C582.549377,1022.506470 582.157715,1032.022339 581.373047,1041.489502 
	C581.039551,1045.513794 581.032776,1049.506104 581.044739,1053.499878 
	C581.100830,1072.272217 577.622742,1090.600342 574.570984,1109.011719 
	C571.814819,1125.640625 566.083496,1141.645508 564.491028,1158.499146 
	C564.200317,1161.575562 562.372314,1163.727417 560.000000,1165.500000 
"/>
<path fill="none" opacity="1.000000" stroke="#000000" stroke-linecap="round" stroke-linejoin="round" stroke-width="10.000000"
	d="
M411.500000,363.500000 
	C412.833344,363.500000 414.166656,363.500000 415.379456,363.500000 
	C416.510254,367.022675 417.596741,370.522675 418.774048,373.991852 
	C419.059357,374.832642 419.103455,375.640411 420.464508,376.104126 
	C425.237213,377.730133 427.632355,381.994843 429.948730,386.029419 
	C434.006927,393.097870 438.775574,399.863037 442.262573,407.114166 
	C448.849823,420.812317 457.100342,433.660431 461.712921,448.433533 
	C467.316376,466.380096 474.688049,483.767181 480.936035,501.522522 
	C485.332947,514.017456 487.010986,527.249146 490.528137,539.992249 
	C494.113464,552.982239 497.549622,565.973755 498.626373,579.489929 
	C498.757935,581.141235 498.961060,582.843140 498.965027,584.500061 
	C499.017548,606.333252 499.009918,628.166687 498.992401,650.000000 
	C498.988495,654.860229 499.254913,659.678833 499.926239,664.510254 
	C500.460327,668.353699 500.081451,672.230652 497.500000,675.500000 
"/>
<path fill="none" opacity="1.000000" stroke="#000000" stroke-linecap="round" stroke-linejoin="round" stroke-width="10.000000"
	d="
M473.500000,793.000000 
	C470.578674,792.569336 467.975616,793.238586 466.012573,795.510864 
	C459.824219,802.673950 451.787231,807.545166 443.923615,812.375671 
	C426.751373,822.924194 411.104828,835.536499 395.119476,847.657593 
	C387.074615,853.757751 381.829376,862.744873 375.966644,870.976257 
	C366.085114,884.850220 357.174042,899.274292 349.449585,914.474365 
	C340.461975,932.160095 329.966949,948.995056 318.920380,965.446533 
	C311.643799,976.283508 307.122955,988.446350 301.783020,1000.129333 
	C295.872528,1013.060608 288.428711,1025.124634 282.332123,1037.920044 
	C280.530487,1041.701294 279.551636,1045.039673 280.500000,1049.000000 
"/>
<path fill="none" opacity="1.000000" stroke="#000000" stroke-linecap="round" stroke-linejoin="round" stroke-width="10.000000"
	d="
M481.000000,772.500000 
	C479.268616,774.134338 478.635712,776.328064 478.009949,778.502869 
	C476.667877,783.166931 477.284729,788.300049 474.111969,792.582947 
	C473.049896,794.016663 475.091705,795.997070 475.103027,797.999390 
	C475.131470,803.036743 474.216156,807.841064 472.479523,812.492371 
	C467.011536,827.137756 461.862640,841.936401 454.902496,855.951599 
	C451.289642,863.226624 446.478058,869.895935 442.544373,877.024475 
	C436.699493,887.616516 432.338104,899.024353 424.526764,908.522034 
	C415.281189,919.763550 407.071686,931.849426 396.520447,942.021240 
	C377.153137,960.691956 360.760254,982.277039 340.838776,1000.322021 
	C324.047943,1015.531189 307.997528,1031.567871 290.536072,1046.043457 
	C288.399811,1047.814453 285.968018,1048.800659 283.480133,1049.420166 
	C277.818970,1050.829956 275.913635,1052.868164 275.500000,1059.000000 
"/>
<path fill="none" opacity="1.000000" stroke="#000000" stroke-linecap="round" stroke-linejoin="round" stroke-width="10.000000"
	d="
M134.500000,504.000000 
	C139.419525,500.022858 144.874405,499.765564 150.488663,502.028137 
	C161.689438,506.542084 173.304550,509.640961 184.997314,512.510986 
	C186.017654,512.761414 187.152664,512.950684 187.976685,513.533020 
	C197.572525,520.314270 209.292603,522.952454 219.004364,529.493530 
	C220.094604,530.227844 221.589935,530.192383 222.051285,531.986816 
	C223.641327,538.171448 227.942245,541.667542 234.005508,542.974487 
	C244.986496,545.341431 253.965958,552.082642 263.931244,556.650024 
	C269.358887,559.137695 274.822662,561.251587 280.488129,563.037659 
	C288.877716,565.682495 296.557526,569.910461 303.975616,574.539062 
	C313.251984,580.327209 323.426361,584.312744 333.027832,589.447937 
	C346.664703,596.741394 359.401398,605.228394 371.037048,615.457825 
	C383.365570,626.296509 396.322052,636.401672 408.055542,647.943542 
	C415.610596,655.375122 421.219635,664.360535 428.407867,672.085754 
	C433.727325,677.802612 437.517151,684.847839 443.016907,690.483521 
	C444.690613,692.198547 446.103607,694.469299 445.841034,696.479248 
	C445.128021,701.936951 449.120239,703.007629 452.534821,703.860596 
	C457.397858,705.075562 462.483856,705.614441 467.505585,705.902771 
	C470.944092,706.100159 474.096375,706.667114 476.962524,708.840576 
	C481.254395,706.146240 484.858521,702.690491 489.503235,701.008911 
	C501.600250,696.629150 512.307068,688.966370 524.998596,685.994019 
	C525.509583,685.874329 526.144958,685.376648 526.478394,685.543274 
	C531.768433,688.186890 536.722107,686.033325 542.041504,685.301758 
	C550.582397,684.127319 557.523804,679.789612 564.956421,676.404297 
	C569.387329,674.386108 573.248962,671.271118 576.512817,667.511108 
	C585.177856,657.528931 596.032471,649.956848 606.173767,641.713745 
	C615.803223,633.886841 624.760925,625.703674 632.586853,616.070557 
	C639.671021,607.350403 646.051208,598.169800 652.607727,589.077637 
	C660.904297,577.572510 665.439392,564.461060 670.531616,551.512451 
	C676.058838,537.457581 681.554626,523.377869 687.613586,509.549774 
	C690.804138,502.268127 695.878052,495.787628 698.849060,488.438965 
	C704.694946,473.979523 709.647217,459.159576 715.014648,444.505371 
	C716.248840,441.135712 717.720581,437.853546 718.980103,434.492554 
	C719.761963,432.406311 721.015076,430.190247 720.422913,428.021057 
	C718.520630,421.053406 722.431396,415.498657 724.546265,409.516357 
	C725.075378,408.019806 726.086914,406.695648 726.000000,405.000000 
"/>
<path fill="none" opacity="1.000000" stroke="#000000" stroke-linecap="round" stroke-linejoin="round" stroke-width="10.000000"
	d="
M450.000000,735.000000 
	C435.013336,736.245789 421.097260,732.228210 406.886261,727.870972 
	C395.830475,724.481140 386.011078,719.196411 376.032715,713.937927 
	C367.174744,709.269897 357.871246,706.445801 348.007690,704.949280 
	C331.479553,702.441528 315.096558,702.824951 298.460602,704.638611 
	C289.712921,705.592285 281.243103,707.799622 272.507996,708.588623 
	C264.137573,709.344788 255.834930,710.844788 247.499634,711.997375 
	C233.848053,713.885010 221.182693,719.010315 208.515244,724.038391 
	C194.561752,729.576904 180.918472,735.874756 167.101791,741.739807 
	C150.545120,748.768005 133.180527,752.396484 116.034813,757.126221 
	C105.844749,759.937195 95.839798,763.608154 86.045975,767.612427 
	C76.650665,771.453796 67.211914,775.075623 57.499420,777.998047 
	C55.453182,778.613770 53.050598,779.212952 52.098614,781.051086 
	C49.853146,785.386902 45.318272,787.720398 43.272633,792.400635 
	C41.901031,795.538696 37.801430,795.189758 34.500000,794.500000 
"/>
<path fill="none" opacity="1.000000" stroke="#000000" stroke-linecap="round" stroke-linejoin="round" stroke-width="10.000000"
	d="
M554.500000,767.500000 
	C563.360352,770.018921 572.614624,770.349548 581.537781,772.866150 
	C601.917480,778.613770 621.632690,786.117249 640.947876,794.618408 
	C653.903381,800.320618 667.044434,805.671143 679.521057,812.461365 
	C690.339417,818.349060 699.876282,825.640015 708.064026,834.943604 
	C724.191406,853.269165 740.385498,871.572144 758.158936,888.331421 
	C760.999939,891.010254 763.629333,894.303833 767.448303,896.109375 
	C768.948303,896.818604 770.334717,897.925720 772.000793,897.953491 
	C775.760010,898.016174 778.291870,899.607056 780.055908,902.970703 
	C781.501953,905.727966 785.409424,905.526123 787.078918,908.455017 
	C788.716736,911.328125 791.018311,913.819824 792.996826,916.502380 
	C801.017944,927.377808 810.607239,936.937622 818.995728,947.503357 
	C827.866272,958.676208 839.298828,966.999512 850.565613,975.412170 
	C859.416870,982.021179 866.758362,989.545837 869.418152,1000.519836 
	C870.920166,1006.717102 875.935425,1011.165710 877.090759,1017.483398 
	C877.390198,1019.120911 879.294373,1019.577942 881.000000,1019.500000 
"/>
<path fill="none" opacity="1.000000" stroke="#000000" stroke-linecap="round" stroke-linejoin="round" stroke-width="10.000000"
	d="
M125.750000,495.500000 
	C125.873718,498.316437 126.212776,500.831085 129.481277,502.050171 
	C135.143463,504.162079 136.100952,509.535187 137.485947,514.503906 
	C138.278351,517.346619 138.756729,520.130493 140.912506,522.577087 
	C144.579758,526.739075 147.151901,531.725464 150.090912,536.443359 
	C161.452728,554.682190 175.776184,570.769897 188.289673,588.151428 
	C198.392761,602.184875 210.907272,614.371399 219.489029,629.506226 
	C224.173233,637.767334 230.255478,645.023010 236.060867,652.452454 
	C242.195908,660.303711 251.059204,664.639893 259.470581,669.550415 
	C267.207062,674.066895 274.790588,678.874023 281.004883,685.495422 
	C286.036865,690.856934 289.290741,696.992737 289.500000,704.500000 
"/>
<path fill="none" opacity="1.000000" stroke="#000000" stroke-linecap="round" stroke-linejoin="round" stroke-width="11.000000"
	d="
M49.500000,786.000000 
	C52.944698,788.489746 56.819988,788.865112 60.993603,789.109314 
	C74.887421,789.922302 88.505371,792.820801 101.972153,796.113892 
	C113.537056,798.941833 125.146675,800.992126 136.991165,802.094910 
	C142.399368,802.598511 147.740707,803.869873 153.022522,805.423401 
	C163.592957,808.532349 174.539856,809.713623 185.501511,809.919312 
	C201.995697,810.228882 218.500229,809.955200 234.999786,810.040710 
	C238.022369,810.056396 240.697510,809.498657 243.000000,807.500000 
"/>
<path fill="none" opacity="1.000000" stroke="#000000" stroke-linecap="round" stroke-linejoin="round" stroke-width="10.000000"
	d="
M765.500000,660.000000 
	C759.917114,666.272278 752.049927,664.844849 744.992737,665.953857 
	C729.266235,668.425415 713.271667,667.126099 697.508301,669.067444 
	C692.954224,669.628296 688.369263,670.610107 684.022583,672.067383 
	C664.990662,678.448059 646.369507,685.885254 627.950562,693.886169 
	C620.353638,697.186157 612.068542,698.915894 605.009827,703.515076 
	C597.984253,708.092651 591.034058,712.692383 583.059448,715.659851 
	C580.323730,716.677734 577.724121,719.073059 577.000000,722.500000 
"/>
<path fill="none" opacity="1.000000" stroke="#000000" stroke-linecap="round" stroke-linejoin="round" stroke-width="10.000000"
	d="
M527.500000,890.000000 
	C528.908630,899.821777 523.161011,907.781921 520.375183,916.459961 
	C516.696411,927.919678 515.271484,939.589905 515.018982,951.500427 
	C514.988403,952.941406 514.856628,954.335999 513.986816,955.490051 
	C510.184753,960.534119 511.005402,965.987976 512.505249,971.498596 
	C514.780334,979.857422 516.850586,988.288452 520.988220,996.006348 
	C521.409607,996.792419 522.192017,997.947388 521.919678,998.457092 
	C518.829407,1004.239929 521.266418,1009.779175 523.145020,1014.947266 
	C526.237732,1023.455383 526.524841,1032.203735 526.994263,1041.000366 
	C527.705200,1054.323608 528.079529,1067.651123 528.153320,1080.999146 
	C528.177307,1085.337891 529.648865,1089.785767 531.070374,1093.976074 
	C534.408752,1103.817505 538.382874,1113.341309 543.263062,1122.624512 
	C548.431213,1132.455566 551.158203,1143.438843 553.010986,1154.498169 
	C553.264526,1156.011475 553.192078,1157.910278 554.076782,1158.933594 
	C559.932312,1165.706787 559.526733,1173.910034 559.750000,1182.000000 
"/>
<path fill="none" opacity="1.000000" stroke="#000000" stroke-linecap="round" stroke-linejoin="round" stroke-width="11.000000"
	d="
M559.500000,754.500000 
	C556.605896,757.825989 554.508789,761.586121 554.047241,766.004944 
	C553.711670,769.217102 550.942200,771.866638 549.329529,772.648193 
	C545.217468,774.640808 542.744568,777.840027 540.007202,781.006226 
	C537.482056,783.927063 534.581116,786.259033 530.502563,785.964783 
	C522.592163,785.393921 517.784241,792.793579 517.087646,800.008484 
	C516.625366,804.797119 516.858948,809.671509 517.024841,814.499146 
	C517.677612,833.488464 513.593506,851.774597 509.009186,870.002319 
	C505.169067,885.270996 502.958588,900.826599 502.119232,916.506409 
	C501.539948,927.327637 501.577454,938.222534 503.465942,949.005981 
	C504.330750,953.944275 506.572174,957.930115 510.500000,961.000000 
"/>
<path fill="none" opacity="1.000000" stroke="#000000" stroke-linecap="round" stroke-linejoin="round" stroke-width="10.000000"
	d="
M396.500000,599.500000 
	C385.205505,601.671143 374.773651,598.866943 365.036743,593.434143 
	C355.518494,588.123169 347.205963,581.007446 338.521240,574.471802 
	C333.741272,570.874634 328.800568,567.779724 323.014404,565.954285 
	C306.287231,560.677246 290.114105,554.166565 274.391785,546.213928 
	C260.774506,539.326111 246.419250,533.775818 231.511108,529.956665 
	C228.272964,529.127136 225.375320,529.544556 222.500000,531.000000 
"/>
<path fill="none" opacity="1.000000" stroke="#000000" stroke-linecap="round" stroke-linejoin="round" stroke-width="11.000000"
	d="
M419.500000,376.500000 
	C417.443604,380.422058 416.848999,384.566345 416.944244,389.001190 
	C417.320862,406.534607 419.883362,423.785583 422.953949,441.008209 
	C425.815155,457.056580 427.235718,473.302063 429.066406,489.492493 
	C430.366821,500.993286 429.777496,512.496582 430.010864,523.999756 
	C430.127441,529.744934 432.880219,534.219055 436.985840,538.015320 
	C437.587708,538.571838 438.477173,539.371948 438.426788,539.994080 
	C437.872925,546.833252 440.640015,553.033875 441.992584,559.501526 
	C443.524780,566.828125 444.986359,574.169495 446.503296,581.499329 
	C448.602844,591.644165 453.110901,600.768677 458.517975,609.488831 
	C460.555756,612.775269 461.758636,615.881470 460.648651,620.039673 
	C459.443207,624.555664 462.075714,628.780579 463.561005,632.978394 
	C464.196350,634.774109 465.341614,636.456482 466.526123,637.979675 
	C473.368744,646.778564 478.561249,656.627502 484.489410,666.006714 
	C486.989777,669.962524 490.445465,673.172180 494.573486,674.815430 
	C498.809540,676.501587 499.534424,679.270142 499.500000,683.000000 
"/>
<path fill="none" opacity="1.000000" stroke="#000000" stroke-linecap="round" stroke-linejoin="round" stroke-width="10.000000"
	d="
M719.000000,421.500000 
	C712.442749,421.764648 709.663757,426.808411 707.070618,431.538696 
	C699.294556,445.723022 689.492371,458.589630 679.681458,471.253204 
	C673.114685,479.729340 666.503784,488.303711 659.547668,496.540253 
	C656.155273,500.557220 652.759277,504.077179 646.999756,504.048004 
	C645.337524,504.039581 644.127136,505.280457 642.986938,506.487671 
	C628.173279,522.172913 613.202209,537.712036 598.552673,553.548706 
	C590.646912,562.095215 582.887451,570.844971 577.014526,581.008423 
	C569.610779,593.821045 564.291321,607.546997 559.491211,621.496948 
	C554.584229,635.757568 549.659119,650.002747 544.186401,664.072510 
	C541.647034,670.601013 538.671082,677.500732 540.500000,685.000000 
"/>
<path fill="none" opacity="1.000000" stroke="#000000" stroke-linecap="round" stroke-linejoin="round" stroke-width="11.000000"
	d="
M918.500000,667.000000 
	C916.665283,669.275635 914.193604,670.873779 911.484375,671.422791 
	C897.942444,674.166870 885.126709,679.537048 871.514282,682.076416 
	C857.283142,684.731323 843.122559,687.778503 828.964722,690.836731 
	C810.269653,694.874939 792.415161,701.618713 774.024475,706.590637 
	C769.707581,707.757751 765.579468,709.658936 761.021545,708.874756 
	C760.365906,708.761902 759.695618,708.938293 759.543518,709.056152 
	C750.102966,716.368164 738.344910,716.912842 727.478638,719.922913 
	C712.921143,723.955322 697.917480,725.884583 682.982178,727.865601 
	C675.579163,728.847534 668.037903,729.621277 660.502502,728.970825 
	C658.985046,728.839722 657.156128,728.774292 656.061646,727.920898 
	C652.075867,724.813232 647.849426,725.152832 643.507446,726.523560 
	C638.578979,728.079529 633.850037,725.925415 628.999695,725.962280 
	C615.000549,726.068787 600.999939,725.980164 587.000061,726.021545 
	C584.917236,726.027710 582.689087,726.180664 581.040588,724.945801 
	C575.929626,721.117310 570.946899,723.170959 566.027649,725.071533 
	C564.200256,725.777466 562.452820,726.438110 560.500000,726.500000 
"/>
<path fill="none" opacity="1.000000" stroke="#000000" stroke-linecap="round" stroke-linejoin="round" stroke-width="10.000000"
	d="
M539.500000,687.000000 
	C542.614258,693.305908 547.402588,698.509521 551.073181,704.454834 
	C551.482483,705.117676 552.565735,705.648682 552.455078,706.494141 
	C551.819763,711.349548 554.149231,715.656921 556.241577,719.363647 
	C559.424866,725.003113 558.931458,730.673645 558.990906,736.500122 
	C559.036743,740.999634 559.016052,745.500061 558.994812,750.000000 
	C558.978821,753.376038 560.627808,754.918640 563.999390,755.020569 
	C582.823608,755.589417 600.469177,761.021240 618.059387,767.334534 
	C631.895264,772.300476 645.950806,776.632446 658.977722,783.541931 
	C669.587158,789.169067 679.956177,795.248413 690.541260,800.923035 
	C692.398682,801.918762 694.365417,802.754517 697.040100,802.189819 
	C701.222107,801.306763 705.670898,801.470337 709.998657,801.562561 
	C713.427490,801.635620 716.696350,802.194275 719.065979,805.452026 
	C722.175354,809.726929 728.091492,810.694519 731.051636,815.468018 
	C740.577698,830.829956 752.010559,844.916199 760.664673,860.910889 
	C765.631897,870.091492 770.884094,879.129150 775.447144,888.525696 
	C776.866577,891.448792 777.810608,894.660278 776.500000,898.000000 
"/>
<path fill="none" opacity="1.000000" stroke="#000000" stroke-linecap="round" stroke-linejoin="round" stroke-width="10.000000"
	d="
M520.500000,788.500000 
	C518.048096,785.923950 514.910583,784.398193 511.519470,785.094849 
	C503.914093,786.657227 497.458435,782.829102 492.255615,779.139526 
	C485.471008,774.328186 477.948242,769.691956 473.454254,762.026855 
	C471.752991,759.125183 470.361572,756.059265 468.082764,753.428284 
	C465.564148,750.520508 463.090118,749.273010 460.063232,752.068481 
	C458.529541,753.484863 457.307495,753.259644 455.490723,753.130859 
	C452.197479,752.897400 448.884583,753.899048 446.025574,755.544434 
	C433.643372,762.670410 420.587860,768.352173 407.532806,774.074829 
	C403.606445,775.796082 399.680115,776.549011 395.500092,776.493713 
	C392.965881,776.460266 391.028229,776.960815 389.396423,779.431580 
	C386.912811,783.192017 382.478729,784.297607 378.519043,786.043213 
	C360.620697,793.933899 341.997803,799.730530 322.952515,803.776550 
	C312.383728,806.021729 301.285400,805.643921 290.512665,807.093994 
	C278.207733,808.750427 265.910919,809.749268 253.499435,809.532104 
	C249.826523,809.467896 245.272583,808.851196 243.853622,806.303101 
	C242.108337,803.168884 240.136337,799.883850 237.810501,797.702026 
	C232.296768,792.529541 233.461502,786.172546 234.340469,780.553284 
	C235.083664,775.801819 239.632202,772.401062 244.499496,770.498718 
	C257.862701,765.275696 271.574310,761.751587 285.996307,760.934937 
	C300.179840,760.131775 314.354614,760.278381 328.494781,761.090698 
	C347.564789,762.186218 366.051361,766.424866 384.015381,772.957703 
	C386.519257,773.868286 388.466675,775.450012 390.500000,777.000000 
"/>
<path fill="none" opacity="1.000000" stroke="#000000" stroke-linecap="round" stroke-linejoin="round" stroke-width="10.000000"
	d="
M445.500000,700.000000 
	C441.659912,702.252258 437.432251,701.266846 433.512939,700.871582 
	C424.368713,699.949463 415.396301,697.822632 406.509644,695.463684 
	C403.474854,694.658081 400.203064,693.920593 398.065155,691.443726 
	C396.445953,689.567810 394.585693,689.659363 392.504578,689.453674 
	C385.242371,688.735779 379.370758,684.455872 373.015381,681.467285 
	C353.083038,672.094421 334.416779,660.517456 315.952606,648.573303 
	C312.298920,646.209778 309.532562,642.867188 305.960815,640.560669 
	C300.442780,636.997253 294.615662,633.916199 289.017853,630.471008 
	C285.254059,628.154663 281.084015,626.190857 279.454285,621.515930 
	C279.296478,621.063354 278.542816,620.664185 277.993622,620.525146 
	C267.840240,617.953796 260.824036,610.643311 253.564148,603.930603 
	C243.270172,594.412598 234.611771,583.220642 223.548386,574.439026 
	C220.527100,572.040894 217.992889,569.023499 215.438202,566.053162 
	C207.927628,557.320740 198.408707,551.028137 189.127319,544.323730 
	C179.307220,537.230225 170.132843,529.220825 160.007843,522.488220 
	C157.621429,520.901367 155.097488,519.412720 153.048996,517.448914 
	C148.758942,513.336121 143.756683,511.896606 138.000000,512.500000 
"/>
<path fill="none" opacity="1.000000" stroke="#000000" stroke-linecap="round" stroke-linejoin="round" stroke-width="10.000000"
	d="
M705.000000,925.500000 
	C707.806702,931.437256 713.296814,933.433105 718.973022,935.571655 
	C737.596375,942.588318 753.408691,954.697632 770.522644,964.460327 
	C787.539124,974.167542 803.440796,985.595215 820.042725,995.931396 
	C824.257751,998.555786 828.901550,1000.580627 833.530457,1002.423523 
	C837.393250,1003.961304 840.278503,1006.239929 842.000000,1010.000000 
"/>
<path fill="none" opacity="1.000000" stroke="#000000" stroke-linecap="round" stroke-linejoin="round" stroke-width="10.000000"
	d="
M550.000000,773.500000 
	C554.317505,779.202637 556.626343,786.058533 560.526611,791.982483 
	C572.990295,810.913147 585.160522,830.071838 601.001160,846.498840 
	C601.491943,847.007812 601.916931,847.781067 602.512634,847.957153 
	C609.578613,850.045532 611.478882,856.507507 614.486938,862.007141 
	C617.059387,866.710388 621.133972,870.153870 625.085205,873.396179 
	C643.915466,888.847900 662.936157,904.077148 683.985779,916.523987 
	C689.464050,919.763306 694.571960,923.764587 701.015137,924.915344 
	C702.567383,925.192627 704.404053,925.574463 706.004517,924.506775 
	C710.298767,921.642334 715.174133,922.196106 719.995972,921.927979 
	C732.518188,921.231506 734.768127,919.795349 729.511841,907.494934 
	C723.665955,893.815063 714.460144,882.807312 703.014526,873.482178 
	C693.308594,865.574341 683.994019,857.170959 675.582825,847.924622 
	C665.388916,836.718445 653.341492,830.492981 637.998840,830.961548 
	C630.672363,831.185303 623.332825,830.949524 616.000183,831.016968 
	C610.756165,831.065247 609.986816,831.826965 610.024292,836.999817 
	C610.056274,841.408936 610.058105,845.788757 608.500000,850.000000 
"/>
<path fill="none" opacity="1.000000" stroke="#000000" stroke-linecap="round" stroke-linejoin="round" stroke-width="10.000000"
	d="
M396.000000,689.500000 
	C398.475952,678.406555 393.429779,669.433044 386.870911,661.608215 
	C375.815613,648.419128 363.837952,636.027283 351.023682,624.473755 
	C342.344360,616.648315 332.117889,611.766235 320.957001,609.186035 
	C315.606842,607.949158 309.840973,609.538391 304.524658,611.084778 
	C296.110046,613.532471 287.520355,615.666504 280.000000,620.500000 
"/>
<path fill="none" opacity="1.000000" stroke="#000000" stroke-linecap="round" stroke-linejoin="round" stroke-width="10.000000"
	d="
M458.000000,754.000000 
	C458.245209,759.497864 455.757141,763.754333 452.008301,767.508301 
	C435.513031,784.026062 418.213348,799.372925 398.151123,811.745056 
	C383.785675,820.604004 371.123169,832.037292 359.391113,844.396606 
	C354.322754,849.735901 348.893524,854.645508 344.945679,860.966064 
	C343.327057,863.557495 341.113403,865.780090 338.500000,867.500000 
"/>
<path fill="none" opacity="1.000000" stroke="#000000" stroke-linecap="round" stroke-linejoin="round" stroke-width="10.000000"
	d="
M528.000000,900.000000 
	C533.575256,900.774170 536.625122,904.240601 539.653442,908.900269 
	C550.408691,925.449097 556.603333,943.563293 557.793762,963.012634 
	C558.886108,980.858154 555.361206,998.232178 547.444275,1014.472839 
	C546.695129,1016.009705 545.416199,1017.764587 543.948669,1018.377136 
	C540.769287,1019.704224 540.553223,1022.353271 540.000000,1025.000000 
"/>
<path fill="none" opacity="1.000000" stroke="#000000" stroke-linecap="round" stroke-linejoin="round" stroke-width="11.000000"
	d="
M458.000000,512.000000 
	C464.193359,515.311096 466.938690,521.509155 470.484283,527.010132 
	C476.873413,536.922913 477.622375,548.244080 477.922119,559.502075 
	C478.361786,576.013306 478.179626,592.535217 476.506042,609.000610 
	C476.128571,612.714355 474.938324,616.014648 472.000000,618.500000 
"/>
<path fill="none" opacity="1.000000" stroke="#000000" stroke-linecap="round" stroke-linejoin="round" stroke-width="10.000000"
	d="
M398.500000,582.000000 
	C397.173767,587.931152 398.518524,594.023132 397.235352,600.050110 
	C396.724274,602.450623 399.245483,605.101807 401.484924,607.017639 
	C418.757263,621.793396 437.837433,634.404297 453.967316,650.532715 
	C464.022583,660.587036 474.160675,670.641296 481.451050,683.028809 
	C483.657654,686.778137 486.449280,690.042175 489.052643,693.459900 
	C490.356842,695.172058 491.073181,696.981873 491.500000,699.000000 
"/>
<path fill="none" opacity="1.000000" stroke="#000000" stroke-linecap="round" stroke-linejoin="round" stroke-width="10.000000"
	d="
M655.500000,530.000000 
	C650.601135,529.509338 646.808228,531.990051 643.540771,535.043640 
	C628.369568,549.221558 615.051331,564.897705 605.506836,583.503540 
	C599.289673,595.623230 594.574463,608.389648 589.507751,621.003113 
	C589.115540,621.979431 588.341431,623.137939 588.577148,623.978333 
	C590.607727,631.218201 586.383301,636.742676 583.389404,642.441895 
	C581.382507,646.262268 581.762451,648.901428 584.972656,651.533325 
	C586.142700,652.492615 587.000000,653.833374 588.000000,655.000000 
"/>
<path fill="none" opacity="1.000000" stroke="#000000" stroke-linecap="round" stroke-linejoin="round" stroke-width="10.000000"
	d="
M656.500000,526.000000 
	C656.358887,528.889160 656.641296,531.634827 657.229248,534.554504 
	C658.044189,538.601074 655.670959,542.646118 654.001221,546.500549 
	C648.395630,559.440491 643.593262,572.849182 635.412720,584.438416 
	C624.412903,600.021545 611.674133,614.187927 598.016785,627.517212 
	C595.604187,629.871826 592.652893,630.609375 589.500000,631.000000 
"/>
<path fill="none" opacity="1.000000" stroke="#000000" stroke-linecap="round" stroke-linejoin="round" stroke-width="10.000000"
	d="
M760.000000,708.500000 
	C758.452942,702.410645 753.362061,701.865784 748.496033,701.564575 
	C738.489563,700.945312 728.605225,702.003845 719.004395,705.013977 
	C706.110168,709.056580 692.664795,710.332153 679.482239,712.908997 
	C672.486450,714.276489 665.613831,715.858582 659.003479,718.508728 
	C655.693787,719.835754 653.152710,721.986023 652.000000,725.500000 
"/>
<path fill="none" opacity="1.000000" stroke="#000000" stroke-linecap="round" stroke-linejoin="round" stroke-width="10.000000"
	d="
M424.000000,866.000000 
	C421.338806,865.928528 419.271301,866.990601 417.481110,868.983032 
	C401.533173,886.732361 387.035706,905.553528 375.594940,926.551758 
	C373.388275,930.601807 372.511383,935.328003 374.500000,940.000000 
"/>
<path fill="none" opacity="1.000000" stroke="#000000" stroke-linecap="round" stroke-linejoin="round" stroke-width="10.000000"
	d="
M430.500000,854.000000 
	C429.500000,856.000000 428.594025,858.054199 427.479431,859.988159 
	C425.466675,863.480530 424.902863,866.747620 425.738007,871.050842 
	C426.978241,877.441345 422.438599,882.558594 418.926544,887.447205 
	C414.009735,894.291077 407.744781,900.191895 403.591888,907.551819 
	C398.899445,915.867981 393.424530,923.542053 387.623077,931.094543 
	C384.425537,935.257202 381.178406,938.633423 376.013031,940.047546 
	C372.745636,940.942139 370.876160,945.001953 371.000000,950.000000 
"/>
<path fill="none" opacity="1.000000" stroke="#000000" stroke-linecap="round" stroke-linejoin="round" stroke-width="10.000000"
	d="
M476.499969,709.000000 
	C474.333313,715.833313 472.673706,722.884399 469.858368,729.439209 
	C466.997467,736.100098 468.169952,743.659424 464.500000,750.000000 
"/>
<path fill="none" opacity="1.000000" stroke="#000000" stroke-linecap="round" stroke-linejoin="round" stroke-width="10.000000"
	d="
M457.750000,510.000000 
	C457.802856,511.484741 457.065857,512.608521 455.991913,513.490173 
	C451.167175,517.450928 448.834717,522.906555 446.380890,528.447266 
	C444.658875,532.335510 442.914978,536.510681 439.000000,539.000000 
"/>
<path fill="none" opacity="1.000000" stroke="#000000" stroke-linecap="round" stroke-linejoin="round" stroke-width="10.000000"
	d="
M541.000000,1020.000000 
	C537.394409,1015.802185 535.220154,1010.730530 532.535400,1005.979980 
	C530.233643,1001.907166 527.303223,998.829346 522.500000,998.000000 
"/>
<path fill="none" opacity="1.000000" stroke="#000000" stroke-linecap="round" stroke-linejoin="round" stroke-width="3.000000"
	d="
M931.500000,663.000000 
	C928.858276,663.532837 925.942200,661.870972 923.500000,664.000000 
"/>
</svg>